<?xml version="1.0" encoding="UTF-8" standalone="no"?>
<!-- Created with Inkscape (http://www.inkscape.org/) -->

<svg
   width="23.135122mm"
   height="23.135122mm"
   viewBox="0 0 23.135122 23.135122"
   version="1.1"
   id="svg8"
   inkscape:version="1.1.2 (0a00cf5339, 2022-02-04)"
   sodipodi:docname="favicon.svg"
   xmlns:inkscape="http://www.inkscape.org/namespaces/inkscape"
   xmlns:sodipodi="http://sodipodi.sourceforge.net/DTD/sodipodi-0.dtd"
   xmlns="http://www.w3.org/2000/svg"
   xmlns:svg="http://www.w3.org/2000/svg"
   xmlns:rdf="http://www.w3.org/1999/02/22-rdf-syntax-ns#"
   xmlns:cc="http://creativecommons.org/ns#"
   xmlns:dc="http://purl.org/dc/elements/1.1/">
  <defs
     id="defs2" />
  <sodipodi:namedview
     id="base"
     pagecolor="#ffffff"
     bordercolor="#666666"
     borderopacity="1.0"
     inkscape:pageopacity="0.0"
     inkscape:pageshadow="2"
     inkscape:zoom="3.959798"
     inkscape:cx="4.2931483"
     inkscape:cy="32.703689"
     inkscape:document-units="px"
     inkscape:current-layer="g1695"
     inkscape:pagecheckerboard="0"
     showgrid="false"
     fit-margin-top="0"
     fit-margin-left="0"
     fit-margin-right="0"
     fit-margin-bottom="0"
     inkscape:window-width="1920"
     inkscape:window-height="1002"
     inkscape:window-x="0"
     inkscape:window-y="0"
     inkscape:window-maximized="1" />
  <metadata
     id="metadata5">
    <rdf:RDF>
      <cc:Work
         rdf:about="">
        <dc:format>image/svg+xml</dc:format>
        <dc:type
           rdf:resource="http://purl.org/dc/dcmitype/StillImage" />
      </cc:Work>
    </rdf:RDF>
  </metadata>
  <g
     inkscape:label="Ebene 1"
     inkscape:groupmode="layer"
     id="layer1"
     transform="translate(-31.071345,-78.584343)">
    <g
       id="g1695"
       transform="translate(21.719148,-13.292752)">
      <path
         id="path1697"
         style="fill:#1a1a1a;stroke:none;stroke-width:0.500005;stroke-linecap:round;stroke-linejoin:round;paint-order:markers stroke fill"
         d="m 79.283203,355.41016 c -19.801495,-3.6e-4 -35.853869,16.05201 -35.853515,35.85351 -3.6e-4,19.8015 16.052016,35.85388 35.853515,35.85352 19.800739,-7.2e-4 35.851927,-16.05278 35.851567,-35.85352 3.5e-4,-19.80073 -16.050832,-35.85279 -35.851567,-35.85351 z"
         transform="scale(0.26458333)"
         sodipodi:nodetypes="ccccc" />
      <g
         id="g1041"
         style="fill:#ffcc00;stroke:#1a1a1a;stroke-width:0.869056;stroke-miterlimit:4;stroke-dasharray:none"
         transform="matrix(1.5222449,0,0,1.5222449,-10.925238,-54.023449)">
        <rect
           style="fill:#ffcc00;stroke:#1a1a1a;stroke-width:0.869059;stroke-linecap:round;stroke-linejoin:round;stroke-miterlimit:4;stroke-dasharray:none;paint-order:markers stroke fill"
           id="rect847"
           width="1.8844573"
           height="14.32897"
           x="19.97753"
           y="96.280174"
           ry="0.14656064" />
        <rect
           style="fill:#ffcc00;stroke:#1a1a1a;stroke-width:0.869059;stroke-linecap:round;stroke-linejoin:round;stroke-miterlimit:4;stroke-dasharray:none;paint-order:markers stroke fill"
           id="rect929"
           width="1.8844573"
           height="14.32897"
           x="86.996696"
           y="51.189434"
           ry="0.14656064"
           transform="rotate(45)" />
        <rect
           style="fill:#ffcc00;stroke:#1a1a1a;stroke-width:0.869059;stroke-linecap:round;stroke-linejoin:round;stroke-miterlimit:4;stroke-dasharray:none;paint-order:markers stroke fill"
           id="rect931"
           width="1.8844573"
           height="14.32897"
           x="102.50243"
           y="-28.084244"
           ry="0.14656064"
           transform="rotate(90)" />
        <rect
           style="fill:#ffcc00;stroke:#1a1a1a;stroke-width:0.869059;stroke-linecap:round;stroke-linejoin:round;stroke-miterlimit:4;stroke-dasharray:none;paint-order:markers stroke fill"
           id="rect933"
           width="1.8844573"
           height="14.32897"
           x="57.41169"
           y="-95.103409"
           ry="0.14656064"
           transform="rotate(135)" />
      </g>
      <circle
         style="fill:#1a1a1a;stroke:none;stroke-width:0.132293;stroke-linecap:round;stroke-linejoin:round;paint-order:markers stroke fill"
         id="circle1167"
         cx="20.976849"
         cy="103.52183"
         r="2.9526103" />
      <circle
         style="fill:#ffcc00;stroke:none;stroke-width:0.132293;stroke-linecap:round;stroke-linejoin:round;paint-order:markers stroke fill"
         id="circle1169"
         cx="20.976849"
         cy="103.52183"
         r="1.4488606" />
      <path
         id="path1065"
         style="fill:#1a1a1a;stroke:none;stroke-width:0.500005;stroke-linecap:round;stroke-linejoin:round;paint-order:markers stroke fill"
         d="m 79.283203,355.41016 a 35.852869,35.852869 0 0 0 -35.853515,35.85351 35.852869,35.852869 0 0 0 35.853515,35.85352 35.852869,35.852869 0 0 0 35.851567,-35.85352 35.852869,35.852869 0 0 0 -35.851567,-35.85351 z m 0,9.77343 a 26.079723,26.079723 0 0 1 26.078127,26.08008 26.079723,26.079723 0 0 1 -26.078127,26.08008 26.079723,26.079723 0 0 1 -26.080078,-26.08008 26.079723,26.079723 0 0 1 26.080078,-26.08008 z"
         transform="scale(0.26458333)" />
    </g>
  </g>
</svg>
